# xmcd
#
# Track frame offsets:
#	150
#	19430
#	51815
#	72933
#	98705
#	124528
#	148310
#
# Disc length: 2361 seconds
#
# Revision: 0
# Processed by: cddbd v1.5.2PL0 Copyright (c) Steve Scherf et al.
# Submitted via: EasyCDDAExtractor 15.2.5.1
#
DISCID=63093707
DTITLE=OPA - GOLDEN WINGS
DYEAR=1900
DGENRE=
TTITLE0=GOLDEN WINGS
TTITLE1=PAPER BUTTERFLIES (MUY LEJOS TE VAS)
TTITLE2=TOTEM
TTITLE3=AFRICAN BIRD
TTITLE4=CORRE NINA
TTITLE5=TOMBO/LA ESCUELA/TOMBO/THE LAST GOODBYE
TTITLE6=GROOVE
EXTD=
EXTT0=
EXTT1=
EXTT2=
EXTT3=
EXTT4=
EXTT5=
EXTT6=
PLAYORDER=
